/* XPM */
static const char*lupe[]={
"22 22 37 1",
"e c #bebebe",
"D c #ababab",
"G c #989898",
"y c #dedede",
"x c #8d8d8d",
"o c #dbdbdb",
"r c #d0d0d0",
"H c #777777",
"F c #414141",
"u c #bdbdbd",
"m c #e0e0e0",
"E c #aaaaaa",
"i c #e8e8e8",
"d c #c2c2c2",
"I c #717171",
"A c #d2d2d2",
"f c #9c9c9c",
"h c #dadada",
"q c #bfbfbf",
"b c #898989",
"# c #303030",
"v c #eaeaea",
"C c #cfcfcf",
"B c #b4b4b4",
"g c #999999",
"t c #d7d7d7",
"p c #868686",
". c None",
"s c #c4c4c4",
"a c #121212",
"j c #e7e7e7",
"k c #efefef",
"w c #d4d4d4",
"l c #c1c1c1",
"n c #c9c9c9",
"z c #aeaeae",
"c c #b6b6b6",
"....##aaaa............",
"..##abcdefaa..........",
".#aghi...jkla.........",
".#gm.......kna........",
"##h........oka........",
"api.........oqa.......",
"ac...........ra.......",
"as...........ta.......",
"auv..........wa.......",
"axv.........ola.......",
".ay.........ka........",
".azk.......kAa........",
"..aBko...okCaxD.......",
"...aaEthwdaaFGxa......",
".....aaaaa..HFIxa.....",
".............aFIxa....",
"..............aFIxa...",
"...............aFIxa..",
"................aFIxa.",
".................aFIa.",
"..................aa..",
"......................"};
