/* XPM */
static char * 1leftarrow_xpm[] = {
"15 15 2 1",
" 	s background	c None",
".	c black",
"         .     ",
"        ..     ",
"       ...     ",
"      ....     ",
"     .....     ",
"    ......     ",
"   .......     ",
"  ........     ",
"   .......     ",
"    ......     ",
"     .....     ",
"      ....     ",
"       ...     ",
"        ..     ",
"         .     "};
