/* XPM */
static char * 1leftarrow_xpm[] = {
"12 12 2 1",
" 	s background	c None",
".	c black",
"       .    ",
"      ..    ",
"     ...    ",
"    ....    ",
"   .....    ",
"  ......    ",
"  ......    ",
"   .....    ",
"    ....    ",
"     ...    ",
"      ..    ",
"       .    "};
