/* XPM */
static char * 1rightarrow_xpm[] = {
"15 15 2 1",
" 	s background	c None",
".	c black",
"     .         ",
"     ..        ",
"     ...       ",
"     ....      ",
"     .....     ",
"     ......    ",
"     .......   ",
"     ........  ",
"     .......   ",
"     ......    ",
"     .....     ",
"     ....      ",
"     ...       ",
"     ..        ",
"     .         "};
