/* XPM */
static char * 2rightarrow_xpm[] = {
"12 12 2 1",
" 	c black",
".	s background	c None",
" ..... .....",
"  ....  ....",
"   ...   ...",
"    ..    ..",
"     .     .",
"            ",
"            ",
"     .     .",
"    ..    ..",
"   ...   ...",
"  ....  ....",
" ..... ....."};
