/* XPM */
static char * 2rightarrow_xpm[] = {
"15 15 2 1",
" 	c black",
".	s background	c None",
" ...... .......",
"  .....  ......",
"   ....   .....",
"    ...    ....",
"     ..     ...",
"      .      ..",
"              .",
"               ",
"              .",
"      .      ..",
"     ..     ...",
"    ...    ....",
"   ....   .....",
"  .....  ......",
" ...... ......."};
