/* XPM */
static char * 3downarrow_xpm[] = {
"12 18 2 1",
" 	c black",
".	s background	c None",
"            ",
".          .",
"..        ..",
"...      ...",
"....    ....",
".....  .....",
"            ",
".          .",
"..        ..",
"...      ...",
"....    ....",
".....  .....",
"            ",
".          .",
"..        ..",
"...      ...",
"....    ....",
".....  ....."};
