/* XPM */
static char * 3leftarrow_xpm[] = {
"18 12 2 1",
" 	s background	c None",
".	c black",
"     .     .     .",
"    ..    ..    ..",
"   ...   ...   ...",
"  ....  ....  ....",
" ..... ..... .....",
"..................",
"..................",
" ..... ..... .....",
"  ....  ....  ....",
"   ...   ...   ...",
"    ..    ..    ..",
"     .     .     ."};
