/* XPM */
static char * 3rightarrow_xpm[] = {
"18 12 2 1",
" 	c black",
".	s background	c None",
" ..... ..... .....",
"  ....  ....  ....",
"   ...   ...   ...",
"    ..    ..    ..",
"     .     .     .",
"                  ",
"                  ",
"     .     .     .",
"    ..    ..    ..",
"   ...   ...   ...",
"  ....  ....  ....",
" ..... ..... ....."};
