/* XPM */
static char * 3uparrow_xpm[] = {
"12 18 2 1",
" 	s background	c None",
".	c black",
"     ..     ",
"    ....    ",
"   ......   ",
"  ........  ",
" .......... ",
"............",
"     ..     ",
"    ....    ",
"   ......   ",
"  ........  ",
" .......... ",
"............",
"     ..     ",
"    ....    ",
"   ......   ",
"  ........  ",
" .......... ",
"............"};
