/* XPM */
static char * 5dayicon_xpm[] = {
"22 22 6 1",
" 	s background	c None",
".	c black",
"X	c blue",
"o	c white",
"O	c gray70",
"+	c darkblue",
"                      ",
" ..................   ",
" .XXXXXXXXXXXXXXXX.   ",
" .XXXXXXXXXXXXXXXX... ",
" .oooOooOooOooOooo... ",
" .oooOooOooOooOooo... ",
" .OOOOO++++++OOOOO... ",
" .oooOo++++++oOooo... ",
" .oooOo++ooOooOooo... ",
" .OOOOO++++OOOOOOO... ",
" .oooOoo++++ooOooo... ",
" .oooOooOo+++oOooo... ",
" .OOOOOOOOO++OOOOO... ",
" .oooOo++++++oOooo... ",
" .oooOo+++++ooOooo... ",
" .OOOOOOOOOOOOOOOO... ",
" .oooOooOooOooOooo... ",
" .oooOooOooOooOooo... ",
" .................... ",
"   .................. ",
"   .................. ",
"                      "};
