/* XPM */
static char * agenda_xpm[] = {
"22 22 5 1",
" 	c None",
".	c #000000",
"+	c #0000FF",
"@	c #FFFFFF",
"#	c #808080",
"                      ",
" ..................   ",
" .++++++++++++++++.   ",
" .++++++++++++++++.   ",
" .@@@#@@@#@@@#@@@#.## ",
" .@@@#+++#@@@#@@@#.## ",
" .@@@#+++#@@@#+++#.## ",
" .@@@#+++#@@@#+++#.## ",
" .+++#@@@#@@@#+++#.## ",
" .+++#@@@#+++#@@@#.## ",
" .+++#@@@#+++#+++#.## ",
" .@@@#+++#+++#+++#.## ",
" .@@@#+++#@@@#+++#.## ",
" .@@@#+++#@@@#@@@#.## ",
" .+++#@@@#+++#@@@#.## ",
" .+++#@@@#+++#@@@#.## ",
" .+++#@@@#+++#@@@#.## ",
" .@@@#@@@#@@@#@@@#.## ",
" ..................## ",
"    ################# ",
"    ################# ",
"                      "};
