/* XPM */
static char*agenda[]={
"22 22 5 1",
". c None",
"# c #000000",
"a c #0000ff",
"b c #ffffff",
"c c #808080",
"......................",
".##################...",
".#aaaaaaaaaaaaaaaa#...",
".#aaaaaaaaaaaaaaaa#...",
".#bbbcbbbcbbbcbbbc###.",
".#bbbcaaacbbbcbbbc###.",
".#bbbcaaacbbbcaaac###.",
".#bbbcaaacbbbcaaac###.",
".#aaacbbbcbbbcaaac###.",
".#aaacbbbcaaacbbbc###.",
".#aaacbbbcaaacaaac###.",
".#bbbcaaacaaacaaac###.",
".#bbbcaaacbbbcaaac###.",
".#bbbcaaacbbbcbbbc###.",
".#aaacbbbcaaacbbbc###.",
".#aaacbbbcaaacbbbc###.",
".#aaacbbbcaaacbbbc###.",
".#bbbcbbbcbbbcbbbc###.",
".####################.",
"....#################.",
"....#################.",
"......................"};
