/* XPM */
static char*alarmd[]={
"22 22 10 1",
"d c #b3b3b3",
"h c #c3c3c3",
"e c #808000",
"a c #000000",
"f c #ffff00",
"g c #800000",
"b c #0000ff",
". c None",
"c c #ffffff",
"# c #ff0000",
"......................",
".##aaaaaaaaaaaaaaa##..",
".###abbbbbbbbbbbb###..",
".a###abbbbbbbbbb###aa.",
".ac###acdccdccd###aaa.",
".acc###adccdcc###aaaa.",
".addd###adddd###adaaa.",
".acccd###acd###accaaa.",
".acccdc###a###acccaaa.",
".adddddd#####aadddaaa.",
".acccdccd###aeeaccaaa.",
".acccdcc#####aeaccaaa.",
".addddd###a###aeadaaa.",
".acccd###aef###aacaaa.",
".accc###aceff###acaaa.",
".add###adeffgg###aaaa.",
".ac###acdccheaa###aaa.",
".a###accdccdeeac###aa.",
".####aaaaaaaaaaa####a.",
".###aaaaaaaaaaaa####a.",
"...aaaaaaaaaaaaaaaaaa.",
"......................"};
