/* XPM */
static char * alarmd_disabled_xpm[] = {
"22 22 11 1",
" 	c None",
".	c #FF0000",
"+	c #000000",
"@	c #0000FF",
"#	c #808080",
"$	c #FFFFFF",
"%	c #B3B3B3",
"&	c #808000",
"*	c #FFFF00",
"=	c #800000",
"-	c #C3C3C3",
"                      ",
" ..+++++++++++++++..  ",
" ...+@@@@@@@@@@@@...  ",
" +...+@@@@@@@@@@...## ",
" +$...+$%$$%$$%...+## ",
" +$$...+%$$%$$...++## ",
" +%%%...+%%%%...+%+## ",
" +$$$%...+$%...+$$+## ",
" +$$$%$...+...+$$$+## ",
" +%%%%%%.....++%%%+## ",
" +$$$%$$%...+&&+$$+## ",
" +$$$%$$.....+&+$$+## ",
" +%%%%%...+...+&+%+## ",
" +$$$%...+&*...++$+## ",
" +$$$...+$&**...+$+## ",
" +%%...+%&**==...++## ",
" +$...+$%$$-&++...+## ",
" +...+$$%$$%&&+$...## ",
" ...+++++++++++++...# ",
" ..###############..# ",
"   ################## ",
"                      "};
