/* XPM */
static char*alarmd[]={
"22 22 9 1",
"c c #b3b3b3",
"g c #c3c3c3",
"d c #808000",
"# c #000000",
"e c #ffff00",
"f c #800000",
"a c #0000ff",
". c None",
"b c #ffffff",
"......................",
".##################...",
".#aaaaaaaaaaaaaaaa#...",
".#aaaaaaaaaaaaaaaa###.",
".#bbbcbbcbbcbbcbbb###.",
".#bbbcbbcbbcbbcbbb###.",
".#cccccccccccccccc###.",
".#bbbcbbcbbcbbcbbb###.",
".#bbbcbbcbbcdd#bbb###.",
".#ccccccccccdd#ccc###.",
".#bbbcbbcbbdedd#bb###.",
".#bbbcbbcbbdefd#bb###.",
".#ccccccccdeeffd#c###.",
".#bbbcbbcbdeeefd#b###.",
".#bbbcbbcbdeeefd#b###.",
".#cccccccdeeffffd####.",
".#bbbcbbcbbgd##bbb###.",
".#bbbcbbcbbcdd#bbb###.",
".####################.",
"...##################.",
"...##################.",
"......................"};
