/* XPM */
static char * checkedclipboard_xpm[] = {
/* width height num_colors chars_per_pixel */
"20 15 4 1",
/* colors */
" 	s background	c None",
".	c black",
"X	c white",
"o	c red2",
/* pixels */
"     ..........     ",
"    .X.XXXXXXX.     ",
"   .XX.X.....X.oo   ",
"   .... XXXXXXooo   ",
"   .XXX.....Xooo    ",
"   .X.  XX  ooo     ",
"   .XXooX.Xooo.X    ",
"   .XoooXXoooX.X    ",
"   .XoooXoooX..X    ",
"   .XooooooXXX.X    ",
"   .XoooooX..X.X    ",
"   .XooooXXXXX.X    ",
"   ..XooX......X    ",
"   .XXXXXXXXXX.X    ",
"    ...........     "};
