/* XPM */
static char * checkedbox_xpm[] = {
/* width height num_colors chars_per_pixel */
"20 15 2 1",
/* colors */
" 	s background	c None",
".	c black",
/* pixels */
"                    ",
"    ........... ..  ",
"   ...............  ",
"   ..         ...   ",
"   ..        ...    ",
"   ..  ..   ....    ",
"   .. ...  .....    ",
"   .. ... ... ..    ",
"   .. ......  ..    ",
"   .. .....   ..    ",
"   .. ....    ..    ",
"   ..  ..     ..    ",
"   .............    ",
"    ...........     ",
"                    "};
