/* XPM */
static char * dayicon_xpm[] = {
"22 22 7 1",
" 	c None",
".	c #000000",
"+	c #0000FF",
"@	c #FFFFFF",
"#	c #B3B3B3",
"$	c #808080",
"%	c #00008B",
"                      ",
" ..................   ",
" .++++++++++++++++.   ",
" .++++++++++++++++.   ",
" .@@@#@@#@@#@@#@@@.$$ ",
" .@@@#@@#@@#@@#@@@.$$ ",
" .#######%%#######.$$ ",
" .@@@#@%%%%#@@#@@@.$$ ",
" .@@@#@@#%%#@@#@@@.$$ ",
" .#######%%#######.$$ ",
" .@@@#@@#%%#@@#@@@.$$ ",
" .@@@#@@#%%#@@#@@@.$$ ",
" .#######%%#######.$$ ",
" .@@@#@@#%%#@@#@@@.$$ ",
" .@@@#@@%%%%@@#@@@.$$ ",
" .################.$$ ",
" .@@@#@@#@@#@@#@@@.$$ ",
" .@@@#@@#@@#@@#@@@.$$ ",
" ..................$$ ",
"    $$$$$$$$$$$$$$$$$ ",
"    $$$$$$$$$$$$$$$$$ ",
"                      "};
