/* XPM */
static char * dayicon_xpm[] = {
"22 22 6 1",
" 	s background	c None",
".	c black",
"X	c blue",
"o	c gray70",
"O	c white",
"+	c darkblue",
"                      ",
"                      ",
"  ..................  ",
"  .XXXXXXXXXXXXXXXX.o ",
"  .XXXXXXXXXXXXXXXX.o ",
"  .OOOoOOoOOoOOoOOO.o ",
"  .OOOoOOoOOoOOoOOO.o ",
"  .ooooooo++ooooooo.o ",
"  .OOOoO++++oOOoOOO.o ",
"  .OOOoOOo++oOOoOOO.o ",
"  .ooooooo++ooooooo.o ",
"  .OOOoOOo++oOOoOOO.o ",
"  .OOOoOOo++oOOoOOO.o ",
"  .ooooooo++ooooooo.o ",
"  .OOOoOOo++oOOoOOO.o ",
"  .OOOoOO++++OOoOOO.o ",
"  .oooooooooooooooo.o ",
"  .OOOoOOoOOoOOoOOO.o ",
"  .OOOoOOoOOoOOoOOO.o ",
"  ..................o ",
"   oooooooooooooooooo ",
"                      "};
