/* XPM */
static char * dayicon_xpm[] = {
"22 22 6 1",
" 	s background	c None",
".	c black",
"X	c darkblue",
"o	c blue",
"O	c gray70",
"+	c white",
"                      ",
"                      ",
"  ..................  ",
"  .XXXXXXXXoooooooo.O ",
"  .XXXXXXXXoooooooo.O ",
"  .+++O++O++O++O+++.O ",
"  .+++O++O++O++O+++.O ",
"  .OOOOOOOXXOOOOOOO.O ",
"  .+++O+XXXXO++O+++.O ",
"  .+++O++OXXO++O+++.O ",
"  .OOOOOOOXXOOOOOOO.O ",
"  .+++O++OXXO++O+++.O ",
"  .+++O++OXXO++O+++.O ",
"  .OOOOOOOXXOOOOOOO.O ",
"  .+++O++OXXO++O+++.O ",
"  .+++O++XXXX++O+++.O ",
"  .OOOOOOOOOOOOOOOO.O ",
"  .+++O++O++O++O+++.O ",
"  .+++O++O++O++O+++.O ",
"  ..................O ",
"   OOOOOOOOOOOOOOOOOO ",
"                      "};
