/* XPM */
static char * dayicon_xpm[] = {
"22 22 6 1",
" 	s background	c None",
".	c black",
"X	c blue",
"o	c white",
"O	c gray70",
"+	c darkblue",
"                      ",
" ..................   ",
" .XXXXXXXXXXXXXXXX.   ",
" .XXXXXXXXXXXXXXXX.   ",
" .oooOooOooOooOooo... ",
" .oooOooOooOooOooo... ",
" .OOOOOOO++OOOOOOO... ",
" .oooOo++++OooOooo... ",
" .oooOooO++OooOooo... ",
" .OOOOOOO++OOOOOOO... ",
" .oooOooO++OooOooo... ",
" .oooOooO++OooOooo... ",
" .OOOOOOO++OOOOOOO... ",
" .oooOooO++OooOooo... ",
" .oooOoo++++ooOooo... ",
" .OOOOOOOOOOOOOOOO... ",
" .oooOooOooOooOooo... ",
" .oooOooOooOooOooo... ",
" .................... ",
"    ................. ",
"    ................. ",
"                      "};
