/* XPM */
static char * delete_xpm[] = {
/* width height num_colors chars_per_pixel */
"22 22 3 1",
/* colors */
" 	c white",
".	c none",
"X	c black",
/* pixels */
"......................",
"......................",
"......................",
"......................",
"......................",
"....XX ........XX ....",
"....XXXX .....XX .....",
".....XXXX ...XX ......",
".......XXX .X ........",
"........XXXXX ........",
".........XXX .........",
"........XXXXX ........",
".......XXX .XX .......",
"......XXX ...XX ......",
".....XXX .....X ......",
".....XXX ......X .....",
"......X ..............",
"................X ....",
"......................",
"......................",
"......................",
"......................"};
