/* XPM */
static char * kdayplan_xpm[] = {
"32 32 10 1",
" 	c none",
".	c #f86460",
"X	c #f8fc00",
"o	c #989898",
"O	c black",
"+	c white",
"@	c #f80000",
"#	c #f83060",
"$	c #c80000",
"%	c #f898c8",
"      .    .X.      .X.   X.    ",
"     .X.X  X.X oO   X.X   .X.   ",
"      .X.   X. OoO  .X   .X.    ",
"      X.X    oO+O+O      X.X    ",
"  .X   X.    OoO+++O     .X     ",
" .X.X      oO+O+++O+O         .X",
"  .X.      OoOo++++o+O       .X.",
"   .X.   oO+O+O+O+o+++O     .X. ",
"    .    OoO+++++o+o+o+O    X.  ",
"X      oO+O+++O+o+++o+++O   .   ",
".X     OoO+++++o+o+o+o+o+O      ",
"X.X  oO+O+++O+o+++o+++@+++O     ",
".X.  OoOo++++o+o+o+o+@#@+o+O    ",
"   oO+O+O+O+o+++o+++@#@#@+++O   ",
"   OoO+++++o+o+o+o+o+@#@+o++OO  ",
" oO+O+++O+o+++o+++o+++@++++OO   ",
" OoO+++++o+o+o+o+o+o+o+o++OO$#  ",
"  OOo+O+o+++o+++o+++o++++OO$#.  ",
"   OOo+o+o+o+o+o+o+o+o++OO$#.%  ",
"  @$OOo+++o+++o+++o++++OO$#.%   ",
"  .#$OOo+o+o+o+o+o+oo+OO$#.%    ",
"  %.#$OOo+++o+++o+++oOO$#.%     ",
"   %.#$OOo+o+o+o+o++OO$#.%      ",
"    %.#$OOo+++o+++oOO$#.%       ",
"     %.#$OOo+o+o++OO$#.%        ",
"      %.#$OOo+++oOO$#.%         ",
"       %.#$OOo++OO$#.%          ",
"        %.#$OOoOO$#.%           ",
"         %.#$OOO$#.%            ",
"          %.#$O$#.%             ",
"           %.#$#.%              ",
"            %.#.%               "};
