/* XPM */
static char * dayicon_xpm[] = {
"22 22 6 1",
" 	s background	c None",
".	c black",
"X	c blue",
"o	c white",
"O	c gray70",
"+	c darkblue",
"                      ",
" ..................   ",
" .XXXXXXXXXXXXXXXX.   ",
" .XXXXXXXXXXXXXXXX.   ",
" .oooooooooooooooo... ",
" .o..o...........o... ",
" .oooooooooooooooo... ",
" .oooooooooooooooo... ",
" .o..o........oooo... ",
" .oooooooooooooooo... ",
" .oooooooooooooooo... ",
" .o..o..........oo... ",
" .oooooooooooooooo... ",
" .oooooooooooooooo... ",
" .o..o......oooooo... ",
" .oooooooooooooooo... ",
" .oooooooooooooooo... ",
" .oooooooooooooooo... ",
" .................... ",
"    ................. ",
"    ................. ",
"                      "};
