/* XPM */
static char * monthicon_xpm[] = {
"22 22 6 1",
" 	s background	c None",
".	c black",
"X	c blue",
"o	c white",
"O	c gray70",
"+	c darkblue",
"                      ",
"                      ",
"  ..................  ",
"  .XXXXXXXXXXXXXXXX.  ",
"  .XXXXXXXXXXXXXXXX...",
"  .oooOooOooOooOooo...",
"  .oooOooOooOooOooo...",
"  .OOO++++OOOO++OOO...",
"  .oo++oo++o++++ooo...",
"  .oooOoo++oOo++ooo...",
"  .OOOO+++OOOO++OOO...",
"  .oooOoo++oOo++ooo...",
"  .oooOoo++oOo++ooo...",
"  .OOOOOO++OOO++OOO...",
"  .oo++oo++oOo++ooo...",
"  .ooo++++ooOo++ooo...",
"  .OOOOOOOOOOOOOOOO...",
"  .oooOooOooOooOooo...",
"  .oooOooOooOooOooo...",
"  ....................",
"    ..................",
"    .................."};
