/* XPM */
static char * monthicon_xpm[] = {
"22 22 6 1",
" 	s background	c None",
".	c black",
"X	c darkblue",
"o	c blue",
"O	c gray70",
"+	c white",
"                      ",
"                      ",
"  ..................  ",
"  .XXXXXXXXoooooooo.O ",
"  .XXXXXXXXoooooooo.O ",
"  .+++O++O++O++O+++.O ",
"  .+++O++O++O++O+++.O ",
"  .OOOXXXXOOOOXXOOO.O ",
"  .++XX++XX+XXXX+++.O ",
"  .+++O++XX+O+XX+++.O ",
"  .OOOOXXXOOOOXXOOO.O ",
"  .+++O++XX+O+XX+++.O ",
"  .+++O++XX+O+XX+++.O ",
"  .OOOOOOXXOOOXXOOO.O ",
"  .++XX++XX+O+XX+++.O ",
"  .+++XXXX++O+XX+++.O ",
"  .OOOOOOOOOOOOOOOO.O ",
"  .+++O++O++O++O+++.O ",
"  .+++O++O++O++O+++.O ",
"  ..................O ",
"   OOOOOOOOOOOOOOOOOO ",
"                      "};
