/* XPM */
static char * monthicon_xpm[] = {
"22 22 6 1",
" 	s background	c None",
".	c black",
"X	c blue",
"o	c gray70",
"O	c white",
"+	c darkblue",
"                      ",
"                      ",
"  ..................  ",
"  .XXXXXXXXXXXXXXXX.o ",
"  .XXXXXXXXXXXXXXXX.o ",
"  .OOOoOOoOOoOOoOOO.o ",
"  .OOOoOOoOOoOOoOOO.o ",
"  .ooo++++oooo++ooo.o ",
"  .OO++OO++O++++OOO.o ",
"  .OOOoOO++OoO++OOO.o ",
"  .oooo+++oooo++ooo.o ",
"  .OOOoOO++OoO++OOO.o ",
"  .OOOoOO++OoO++OOO.o ",
"  .oooooo++ooo++ooo.o ",
"  .OO++OO++OoO++OOO.o ",
"  .OOO++++OOoO++OOO.o ",
"  .oooooooooooooooo.o ",
"  .OOOoOOoOOoOOoOOO.o ",
"  .OOOoOOoOOoOOoOOO.o ",
"  ..................o ",
"   oooooooooooooooooo ",
"                      "};
