/* XPM */
static char * newevent_xpm[] = {
"22 22 5 1",
" 	s background	c None",
".	c black",
"X	c blue",
"o	c white",
"O	c gray70",
"                      ",
" ..................   ",
" .XXXXXXXXXXXXXXXX.   ",
" .XXXXXXXXXXXXXXXX... ",
" .oooOooOooOooOooo... ",
" .oooOooOooOooOooo... ",
" .OOOOOOOOOOOOOOOO... ",
" .oooOooOooOooOooo... ",
" .oooOooOooOooOooo... ",
" .OOOOOOOOOOOOOOOO... ",
" .oooOooOooOooOooo... ",
" .oooOooOooOooOooo... ",
" .OOOOOOOOOXXXXOOO... ",
" .oooOooOooXooXooo... ",
" .oooOooOooXooXooo... ",
" .OOOOOOOOOXXXXOOO... ",
" .oooOooOooOooOooo... ",
" .oooOooOooOooOooo... ",
" .................... ",
"   .................. ",
"   .................. ",
"                      "};
