/* XPM */
static char * newrecurevent_xpm[] = {
"22 22 6 1",
" 	s background	c None",
".	c black",
"X	c blue",
"o	c white",
"O	c gray70",
"+	c darkblue",
"                      ",
" ..................   ",
" .XXXXXXXXXXXXXXXX.   ",
" .XXXXXXXXXXXXXXXX... ",
" .oooOooOooOooOooo... ",
" .oooOooOooOooOooo... ",
" .OOOOOOOOOOOOOOOO... ",
" .oooOooOooOooOooo... ",
" .oooOooOooOooOooo... ",
" .OOOOOOOOooooooOO... ",
" .oooOooOoo+oo+ooo... ",
" .oooOooOoo+o+++oo... ",
" .OOOOOOOoo+o++++o... ",
" .oooOooooo+oo+ooo... ",
" .oooOooo++++o+ooo... ",
" .OOOOOOoo+++o+oOO... ",
" .oooOooOoo+oo+oOo... ",
" .oooOooOoooooooOo... ",
" .................... ",
"   .................. ",
"   .................. ",
"                      "};
