/* XPM */
static char*nomailappt[]={
"16 15 6 1",
"d c #808080",
"b c #000000",
". c None",
"# c #dcdcdc",
"c c #ffffff",
"a c #ff0000",
"...............#",
".#a##########aa#",
"bbaabbbbbbbbaab.",
"bccaaccccccaacbd",
"bbccaaccccaacbbd",
"bcbccaaccaacbcbd",
"bccbccaaaacbccbd",
"bccbbccaacbbccbd",
"bccbcbaaaacbccbd",
"bcbccaabbaacbcbd",
"bbccaaccccaacbbd",
"bbbaabbbbbbaabbd",
".daaddddddddaadd",
"..a..........aa.",
".#.............."};
