/* XPM */
static char *magick[] = {
/* columns rows colors chars-per-pixel */
"14 14 5 1",
"  c #000000",
". c #595959",
"X c #0000ff",
"o c #ffffff",
"O c None",
/* pixels */
"OOOOOX.OOOOOXX",
"OOOOOXX.OOXX..",
"OOOOOX.XXX..XX",
"OOOOOXX...XX..",
"OOOOOX.XXX..OO",
"OOOOOX....oOOO",
"OOOOOX.OOoOoOO",
"OOOOOX.oOoOoOO",
"OOXX.X.OoOoOoO",
"XXXXXX.OoOoOoO",
"XXXXXX.oOoOoOO",
"XXXXXX.OOoOoOO",
"XXXXX.OOOOoOOO",
"OOXX.OOOOOOOOO"
};
