/* XPM */
/* Drawn  by Mark Donohoe for the K Desktop Environment */
/* See http://www.kde.org */
static char*readonlyevent[]={
"12 12 9 1",
"# c #000000",
"g c #808080",
"f c #c0c0c0",
"b c #ff0000",
"a c #ffffc0",
"c c #ff8000",
"e c #c05800",
"d c #ffdca8",
". c None",
"..#.........",
".#a#......b.",
"#cda#....bb.",
"#ecda#..bb..",
".#ecda#bb...",
"..#ecdbb....",
"...#ebba#...",
"....bbcda#..",
"...bb#ecda#.",
"..bb..#ecff#",
".bb....#ffg#",
".b......####"};

