/* XPM */
static char * smallclock_xpm[] = {
"9 9 29 1",
" 	c None",
".	c #000000",
"+	c #FF0000",
"@	c #E9E9E9",
"#	c #FEFEFE",
"$	c #4C4C4C",
"%	c #D1D1D1",
"&	c #FFFFFF",
"*	c #FCFCFC",
"=	c #DBDBDB",
"-	c #C5C5C5",
";	c #F3F3F3",
">	c #D2D2D2",
",	c #C8C8C8",
"'	c #F6F6F6",
")	c #EBEBEB",
"!	c #CACACA",
"~	c #BFBFBF",
"{	c #F7F7F7",
"]	c #EEEEEE",
"^	c #CDCDCD",
"/	c #C2C2C2",
"(	c #B9B9B9",
"_	c #D4D4D4",
":	c #D0D0D0",
"<	c #AAAAAA",
"[	c #BDBDBD",
"}	c #C7C7C7",
"|	c #BBBBBB",
"  ..+..  ",
" .@#+$%. ",
".@&*+$=-.",
".#&;+$>,.",
".&')+$!~.",
".{]+$^/(.",
"._+$:-(<.",
" .[^}|<. ",
"  .....  "};
