/* XPM */
static char *smallcal[] = {
/* width height num_colors chars_per_pixel */
"    12    14        8            1",
/* colors */
". c #000000",
"# c #303060",
"a c #6064c8",
"b c #808080",
"c c #c0c0c0",
"d c #f8fc00",
"e c #f0f0f0",
"f c none"
/* pixels */
"fffb#bffffff",
"fff#c#dfffff",
"b#b#e#eaffff",
"#c#eeeeeafff",
"#d#eee#eeaff",
"deee#e##eeaf",
"#eee##ee#ee.",
"##eeee#eee.#",
"###eeeeee.#.",
"f###eeee.##f",
"ff###ee.##ff",
"fff###c##fff",
"ffff##c#ffff",
"fffff#bfffff"
};
SIMPLE  =                    T                                                  BITPIX  =                    8                                                  NAXIS   =                    2                                                  NAXIS1  =      
             12                                                  NAXIS2  =                   14                                                  HISTORY Written by XV 3.10a                                                     COMMENT Made with GIMP        
                                                  END                                                                                                                                                                                                          
                                                                                                                                                                                                                                                               
                                                                                                                                                                                                                                                               
                                                                                                                                                                                                                                                               
                                                                                                                                                                                                                                                               
                                                                                                                                                                                                                                                               
                                                                                                                                                                                                                                                               
                                                                                                                                                                                                                                                               
                                                                                                                                                                                                                                                               
                                                                           תתתתת7€תתתתתתתתת77ְ7תתתתתתת777ְ77תתתתת777תת




















