/* XPM */
static char * todayicon_xpm[] = {
"22 22 6 1",
" 	s background	c None",
".	c black",
"X	c blue",
"o	c white",
"O	c gray70",
"+	c darkblue",
"                      ",
" ..................   ",
" .XXXXXXXXXXXXXXXX.   ",
" .XXXXXXXXXXXXXXXX... ",
" .oooOooOooOooOooo... ",
" .oooOooOooOooOooo... ",
" .OOOOOOOOOOOOOOOO... ",
" .oooOooOooOooOooo... ",
" .oooOooOooOooOooo... ",
" .OOOOOOOOOOOOOOOO... ",
" .oooOooOooOooOooo... ",
" .oooOooOo+OooO+oo... ",
" .OOOOOOOOOX++XOOO... ",
" .oooOooOoo+XX+ooo... ",
" .oooOooOoo+XX+ooo... ",
" .OOOOOOOOOX++XOOO... ",
" .oooOooOo+OooO+oo... ",
" .oooOooOooOooOooo... ",
" .................... ",
"   .................. ",
"   .................. ",
"                      "};
