/* XPM */
static char * todayicon_xpm[] = {
"22 22 7 1",
" 	c None",
".	c #000000",
"+	c #0000FF",
"@	c #808080",
"#	c #FFFFFF",
"$	c #B3B3B3",
"%	c #00008B",
"                      ",
" ..................   ",
" .++++++++++++++++.   ",
" .++++++++++++++++.@@ ",
" .###$##$##$##$###.@@ ",
" .###$##$##$##$###.@@ ",
" .$$$$$$$$$$$$$$$$.@@ ",
" .###$##$##$##$###.@@ ",
" .###$##$##$##$###.@@ ",
" .$$$$$$$$$$$$$$$$.@@ ",
" .###$##$##$##$###.@@ ",
" .###$##$#%$##$%##.@@ ",
" .$$$$$$$$$+%%+$$$.@@ ",
" .###$##$##%++%###.@@ ",
" .###$##$##%++%###.@@ ",
" .$$$$$$$$$+%%+$$$.@@ ",
" .###$##$#%$##$%##.@@ ",
" .###$##$##$##$###.@@ ",
" ..................@@ ",
"   @@@@@@@@@@@@@@@@@@ ",
"   @@@@@@@@@@@@@@@@@@ ",
"                      "};
