/* XPM */
static char * todolist_xpm[] = {
"22 22 7 1",
" 	c None",
".	c #000000",
"+	c #0000FF",
"@	c #FF0000",
"#	c #808080",
"$	c #FFFFFF",
"%	c #A09090",
"                      ",
" ..................   ",
" .++++++++++++++++.@@ ",
" .+++++++++++++++@@@# ",
" .$$$$$$$$$$$$$$@@@## ",
" .$..$.........@@@.## ",
" .$$@@$$$$$$$$@@@%.## ",
" .$@@@@$$$$$$@@@%%.## ",
" .$@@@@.....@@@%%$.## ",
" .$@@@@%$$@@@@%%$$.## ",
" .$@@@@%@@@@@%%$$$.## ",
" .$@@@@@@@@@....$$.## ",
" .$@@@@@@@@%%$$$$$.## ",
" .$@@@@@@@%%$$$$$$.## ",
" .$@@@@@@...$$$$$$.## ",
" .$$@@@@%%$$$$$$$$.## ",
" .$$$%%%%$$$$$$$$$.## ",
" .$$$$$$$$$$$$$$$$.## ",
" ..................## ",
"   ################## ",
"   ################## ",
"                      "};
