/* XPM */
static char * weekicon_xpm[] = {
"22 22 6 1",
" 	s background	c None",
".	c black",
"X	c blue",
"o	c white",
"O	c gray70",
"+	c darkblue",
"                      ",
"                      ",
"  ..................  ",
"  .XXXXXXXXXXXXXXXX.  ",
"  .XXXXXXXXXXXXXXXX...",
"  .oooOooOooOooOooo...",
"  .oooOooOooOooOooo...",
"  .OOOOO++++++OOOOO...",
"  .oooOo++++++oOooo...",
"  .oooOooOo++ooOooo...",
"  .OOOOOOOO++OOOOOO...",
"  .oooOooO++OooOooo...",
"  .oooOooO++OooOooo...",
"  .OOOOOOO++OOOOOOO...",
"  .oooOoo++oOooOooo...",
"  .oooOoo++oOooOooo...",
"  .OOOOOOOOOOOOOOOO...",
"  .oooOooOooOooOooo...",
"  .oooOooOooOooOooo...",
"  ....................",
"    ..................",
"    .................."};
