/* XPM */
static char * weekicon_xpm[] = {
"22 22 6 1",
" 	s background	c None",
".	c black",
"X	c blue",
"o	c gray70",
"O	c white",
"+	c darkblue",
"                      ",
"                      ",
"  ..................  ",
"  .XXXXXXXXXXXXXXXX.o ",
"  .XXXXXXXXXXXXXXXX.o ",
"  .OOOoOOoOOoOOoOOO.o ",
"  .OOOoOOoOOoOOoOOO.o ",
"  .ooooo++++++ooooo.o ",
"  .OOOoO++++++OoOOO.o ",
"  .OOOoOOoO++OOoOOO.o ",
"  .oooooooo++oooooo.o ",
"  .OOOoOOo++oOOoOOO.o ",
"  .OOOoOOo++oOOoOOO.o ",
"  .ooooooo++ooooooo.o ",
"  .OOOoOO++OoOOoOOO.o ",
"  .OOOoOO++OoOOoOOO.o ",
"  .oooooooooooooooo.o ",
"  .OOOoOOoOOoOOoOOO.o ",
"  .OOOoOOoOOoOOoOOO.o ",
"  ..................o ",
"   oooooooooooooooooo ",
"                      "};
