/* XPM */
static char * weekicon_xpm[] = {
"22 22 6 1",
" 	s background	c None",
".	c black",
"X	c darkblue",
"o	c blue",
"O	c gray70",
"+	c white",
"                      ",
"                      ",
"  ..................  ",
"  .XXXXXXXXoooooooo.O ",
"  .XXXXXXXXoooooooo.O ",
"  .+++O++O++O++O+++.O ",
"  .+++O++O++O++O+++.O ",
"  .OOOOOXXXXXXOOOOO.O ",
"  .+++O+XXXXXX+O+++.O ",
"  .+++O++O+XX++O+++.O ",
"  .OOOOOOOOXXOOOOOO.O ",
"  .+++O++OXXO++O+++.O ",
"  .+++O++OXXO++O+++.O ",
"  .OOOOOOOXXOOOOOOO.O ",
"  .+++O++XX+O++O+++.O ",
"  .+++O++XX+O++O+++.O ",
"  .OOOOOOOOOOOOOOOO.O ",
"  .+++O++O++O++O+++.O ",
"  .+++O++O++O++O+++.O ",
"  ..................O ",
"   OOOOOOOOOOOOOOOOOO ",
"                      "};
